<svg xmlns="http://www.w3.org/2000/svg" xmlns:xlink="http://www.w3.org/1999/xlink" width="500" zoomAndPan="magnify" viewBox="0 0 375 374.999991" height="500" preserveAspectRatio="xMidYMid meet" version="1.0"><defs><g/><clipPath id="9c49bbb3de"><path d="M 83.359375 83.359375 L 291.636719 83.359375 L 291.636719 291.636719 L 83.359375 291.636719 Z M 83.359375 83.359375 " clip-rule="nonzero"/></clipPath><clipPath id="36ee91693c"><path d="M 187.496094 83.359375 C 129.984375 83.359375 83.359375 129.984375 83.359375 187.496094 C 83.359375 245.011719 129.984375 291.636719 187.496094 291.636719 C 245.011719 291.636719 291.636719 245.011719 291.636719 187.496094 C 291.636719 129.984375 245.011719 83.359375 187.496094 83.359375 Z M 187.496094 83.359375 " clip-rule="nonzero"/></clipPath><clipPath id="70cfaad5e6"><path d="M 84.375 84.375 L 290.625 84.375 L 290.625 290.625 L 84.375 290.625 Z M 84.375 84.375 " clip-rule="nonzero"/></clipPath><clipPath id="8453dcf0ad"><path d="M 187.5 84.375 C 130.546875 84.375 84.375 130.546875 84.375 187.5 C 84.375 244.453125 130.546875 290.625 187.5 290.625 C 244.453125 290.625 290.625 244.453125 290.625 187.5 C 290.625 130.546875 244.453125 84.375 187.5 84.375 Z M 187.5 84.375 " clip-rule="nonzero"/></clipPath></defs><rect x="-37.5" width="450" fill="#ffffff" y="-37.499999" height="449.999989" fill-opacity="1"/><rect x="-37.5" width="450" fill="#0c0c0c" y="-37.499999" height="449.999989" fill-opacity="1"/><g clip-path="url(#9c49bbb3de)"><g clip-path="url(#36ee91693c)"><path stroke-linecap="butt" transform="matrix(0.75, 0, 0, 0.75, 83.358741, 83.358736)" fill="none" stroke-linejoin="miter" d="M 138.849813 0.000851832 C 62.167517 0.000851832 0.000845832 62.167523 0.000845832 138.849819 C 0.000845832 215.537324 62.167517 277.703995 138.849813 277.703995 C 215.537318 277.703995 277.703989 215.537324 277.703989 138.849819 C 277.703989 62.167523 215.537318 0.000851832 138.849813 0.000851832 Z M 138.849813 0.000851832 " stroke="#000000" stroke-width="4" stroke-opacity="1" stroke-miterlimit="4"/></g></g><g clip-path="url(#70cfaad5e6)"><g clip-path="url(#8453dcf0ad)"><path stroke-linecap="butt" transform="matrix(0.75, 0, 0, 0.75, 84.374999, 84.374994)" fill="none" stroke-linejoin="miter" d="M 137.50001 0.0000073875 C 61.562505 0.0000073875 0.0000013875 61.562511 0.0000013875 137.500016 C 0.0000013875 213.437521 61.562505 275.000025 137.50001 275.000025 C 213.437515 275.000025 275.000019 213.437521 275.000019 137.500016 C 275.000019 61.562511 213.437515 0.0000073875 137.50001 0.0000073875 Z M 137.50001 0.0000073875 " stroke="#00fefb" stroke-width="8" stroke-opacity="1" stroke-miterlimit="4"/></g></g><path stroke-linecap="butt" transform="matrix(0.578499, 0, 0, 0.578499, 167.884709, 106.925287)" fill="none" stroke-linejoin="miter" d="M 75.826055 132.678555 C 76.075894 133.117461 76.393256 133.650899 76.77139 134.285624 L 77.716724 136.169541 C 78.594535 137.871143 79.31704 139.289145 79.884241 140.423546 C 81.77491 144.009065 83.381979 147.250212 84.705447 150.146987 C 88.480033 158.769788 90.465236 166.102883 90.654302 172.146272 L 90.654302 172.90254 C 90.654302 188.203454 79.31704 195.847159 56.656021 195.847159 C 53.887542 195.847159 50.957005 195.725616 47.877915 195.469025 L 46.838047 195.374492 C 35.62908 194.496681 26.817212 191.032705 20.39569 184.989317 C 15.925608 180.897369 11.83366 174.381313 8.119845 165.441149 C 6.735606 162.233764 5.479661 158.486188 4.34526 154.205173 L 3.116325 148.539918 L 1.88739 142.685597 L 1.698323 142.023862 L 1.509256 141.267595 L 1.509256 140.700394 C 1.509256 140.329013 1.543018 139.977888 1.60379 139.667278 C 1.921152 138.34381 3.116325 137.55378 5.196061 137.303942 L 5.668728 137.303942 C 7.174511 137.303942 8.27515 137.871143 8.970647 139.005544 C 9.220485 139.44445 9.443314 140.01165 9.632381 140.700394 L 10.010515 141.551195 L 10.294115 142.212929 C 11.171926 144.603275 12.40086 148.006479 13.974167 152.41579 L 15.675769 157.41931 L 17.471905 162.611898 C 21.307262 172.240805 26.49985 179.2903 33.049668 183.760382 C 35.129403 185.08385 37.269911 186.218252 39.47119 187.163586 C 41.989831 188.108921 44.285644 188.581588 46.36538 188.581588 L 46.743513 188.581588 C 55.366315 188.324997 59.681092 184.455878 59.681092 176.967478 L 59.681092 175.64401 C 58.985596 164.691634 50.329032 145.616134 33.711402 118.417509 C 32.387933 116.405297 30.281188 112.623958 27.384413 107.086999 C 24.109504 101.04361 20.834595 94.844917 17.566438 88.484166 C 8.876113 71.238563 3.622754 59.401624 1.792856 52.980102 C 0.597684 48.570791 -0.00327913 44.573377 -0.00327913 40.987858 C -0.00327913 31.858627 3.811821 25.025209 11.428516 20.494356 C 17.593448 16.908837 25.277667 15.112701 34.467669 15.112701 C 37.236149 15.112701 40.132924 15.268006 43.151242 15.585369 C 48.188525 16.152569 52.44253 18.10401 55.899754 21.43969 C 63.138315 28.300118 67.547626 37.868254 69.120932 50.144098 L 69.215466 50.616765 L 69.215466 51.183966 C 69.276237 51.373033 69.309999 51.5621 69.309999 51.751167 C 69.309999 51.940234 69.276237 52.129301 69.215466 52.318368 C 68.837332 53.263702 68.020293 53.736369 66.764348 53.736369 L 66.575281 53.736369 C 65.819014 53.736369 65.218051 53.419007 64.779146 52.791035 C 64.65085 52.601968 64.556317 52.284606 64.495545 51.8457 L 64.306479 51.373033 L 64.211945 50.994899 C 63.833811 49.928022 63.421916 48.570791 62.98301 46.936713 L 61.943142 42.783994 C 60.997808 39.569856 59.93093 36.929672 58.735757 34.849936 C 57.47306 32.709429 55.80522 30.379854 53.732237 27.861213 C 49.451222 23.640969 44.002043 21.311395 37.391454 20.87249 C 36.635186 20.811718 35.885671 20.777956 35.129403 20.777956 C 33.616868 20.777956 32.138095 20.906252 30.686331 21.15609 C 29.936816 21.284385 29.180548 21.405928 28.424281 21.534224 C 28.174442 21.594995 27.917852 21.662519 27.668013 21.723291 L 27.384413 21.817824 L 27.195346 21.817824 C 24.426866 22.763159 22.407902 24.370227 21.151957 26.632278 C 20.584756 27.705908 20.301156 28.806547 20.301156 29.940949 C 20.301156 30.947055 20.584756 31.953161 21.151957 32.959267 L 23.70436 36.835139 L 26.250011 40.704258 C 28.201452 43.722576 29.774759 46.274979 30.969932 48.354715 C 32.482467 51.244738 34.494679 55.154371 37.01332 60.063358 L 40.038391 65.91768 L 43.056709 71.772002 L 55.427086 94.622088 L 67.797464 117.566708 L 71.862402 125.122631 C 73.496481 128.080178 74.819949 130.598819 75.826055 132.678555 Z M 75.826055 132.678555 " stroke="#000000" stroke-width="9.427812" stroke-opacity="1" stroke-miterlimit="4"/><g fill="#ffffff" fill-opacity="1"><g transform="translate(167.884709, 219.732576)"><g><path d="M 43.859375 -36.046875 C 44.003906 -35.796875 44.1875 -35.488281 44.40625 -35.125 L 44.953125 -34.03125 C 45.460938 -33.050781 45.882812 -32.234375 46.21875 -31.578125 C 47.3125 -29.492188 48.238281 -27.617188 49 -25.953125 C 51.1875 -20.960938 52.332031 -16.71875 52.4375 -13.21875 L 52.4375 -12.78125 C 52.4375 -3.9375 45.882812 0.484375 32.78125 0.484375 C 31.175781 0.484375 29.484375 0.410156 27.703125 0.265625 L 27.09375 0.21875 C 20.613281 -0.289062 15.515625 -2.296875 11.796875 -5.796875 C 9.210938 -8.160156 6.847656 -11.925781 4.703125 -17.09375 C 3.898438 -18.957031 3.171875 -21.125 2.515625 -23.59375 L 1.796875 -26.875 L 1.09375 -30.265625 L 0.984375 -30.640625 L 0.875 -31.078125 L 0.875 -31.40625 C 0.875 -31.625 0.890625 -31.828125 0.921875 -32.015625 C 1.109375 -32.773438 1.800781 -33.226562 3 -33.375 L 3.28125 -33.375 C 4.15625 -33.375 4.789062 -33.046875 5.1875 -32.390625 C 5.332031 -32.140625 5.460938 -31.8125 5.578125 -31.40625 L 5.796875 -30.921875 L 5.953125 -30.53125 C 6.460938 -29.144531 7.171875 -27.179688 8.078125 -24.640625 L 9.0625 -21.734375 L 10.109375 -18.734375 C 12.328125 -13.160156 15.332031 -9.082031 19.125 -6.5 C 20.320312 -5.738281 21.554688 -5.082031 22.828125 -4.53125 C 24.285156 -3.988281 25.617188 -3.71875 26.828125 -3.71875 L 27.046875 -3.71875 C 32.035156 -3.863281 34.53125 -6.101562 34.53125 -10.4375 L 34.53125 -11.203125 C 34.125 -17.535156 29.113281 -28.566406 19.5 -44.296875 C 18.738281 -45.460938 17.519531 -47.648438 15.84375 -50.859375 C 13.945312 -54.347656 12.050781 -57.9375 10.15625 -61.625 C 5.132812 -71.601562 2.09375 -78.445312 1.03125 -82.15625 C 0.34375 -84.707031 0 -87.019531 0 -89.09375 C 0 -94.375 2.203125 -98.328125 6.609375 -100.953125 C 10.179688 -103.023438 14.625 -104.0625 19.9375 -104.0625 C 21.539062 -104.0625 23.21875 -103.972656 24.96875 -103.796875 C 27.875 -103.460938 30.332031 -102.332031 32.34375 -100.40625 C 36.53125 -96.4375 39.078125 -90.898438 39.984375 -83.796875 L 40.046875 -83.53125 L 40.046875 -83.203125 C 40.078125 -83.085938 40.09375 -82.976562 40.09375 -82.875 C 40.09375 -82.757812 40.078125 -82.648438 40.046875 -82.546875 C 39.828125 -81.992188 39.351562 -81.71875 38.625 -81.71875 L 38.515625 -81.71875 C 38.078125 -81.71875 37.726562 -81.898438 37.46875 -82.265625 C 37.394531 -82.378906 37.34375 -82.5625 37.3125 -82.8125 L 37.203125 -83.09375 L 37.140625 -83.3125 C 36.921875 -83.925781 36.6875 -84.707031 36.4375 -85.65625 L 35.828125 -88.0625 C 35.285156 -89.914062 34.671875 -91.441406 33.984375 -92.640625 C 33.253906 -93.878906 32.285156 -95.226562 31.078125 -96.6875 C 28.609375 -99.125 25.457031 -100.472656 21.625 -100.734375 C 21.195312 -100.765625 20.765625 -100.78125 20.328125 -100.78125 C 19.453125 -100.78125 18.59375 -100.707031 17.75 -100.5625 C 17.3125 -100.488281 16.875 -100.414062 16.4375 -100.34375 C 16.289062 -100.3125 16.144531 -100.273438 16 -100.234375 L 15.84375 -100.1875 L 15.734375 -100.1875 C 14.128906 -99.632812 12.960938 -98.707031 12.234375 -97.40625 C 11.910156 -96.78125 11.75 -96.140625 11.75 -95.484375 C 11.75 -94.898438 11.910156 -94.316406 12.234375 -93.734375 L 13.71875 -91.5 L 15.1875 -89.265625 C 16.3125 -87.515625 17.222656 -86.035156 17.921875 -84.828125 C 18.796875 -83.160156 19.957031 -80.90625 21.40625 -78.0625 L 24.90625 -71.28125 L 32.0625 -58.0625 L 39.21875 -44.796875 L 41.578125 -40.421875 C 42.515625 -38.710938 43.273438 -37.253906 43.859375 -36.046875 Z M 43.859375 -36.046875 "/></g></g></g><path stroke-linecap="butt" transform="matrix(0.551422, 0.042461, -0.042461, 0.551422, 154.235238, 115.737093)" fill="none" stroke-linejoin="miter" d="M 60.707423 161.906739 C 60.95497 161.717662 61.13913 161.441375 61.25936 161.070835 L 61.54206 160.14232 L 63.859929 151.881045 L 65.99361 143.527693 L 67.391808 137.214483 L 68.690866 130.809731 L 72.030883 114.939503 C 73.393899 108.997367 74.724467 103.73779 76.022044 99.15373 C 77.447436 94.205629 79.298431 86.964974 81.589656 77.437722 L 83.821268 67.596282 L 85.953748 57.755392 L 87.161908 52.746095 L 88.370076 47.828889 C 89.420707 44.177674 90.596506 40.956026 91.890975 38.171529 L 92.732047 35.570709 L 93.566069 32.878339 C 94.242494 30.715234 95.392527 30.470831 97.001541 32.139173 C 97.743749 32.946264 98.017925 33.838982 97.832197 34.83087 L 97.182965 38.359084 L 95.603682 49.588336 L 94.216173 60.916164 C 93.908697 63.638827 93.258893 66.791636 92.267304 70.381633 C 91.213955 73.905546 90.223546 78.706809 89.294991 84.771337 L 87.622988 94.888463 C 87.001954 98.782872 86.387918 102.124194 85.766796 104.913513 L 84.284157 112.062048 L 82.985165 119.295617 C 82.670031 121.090872 82.150168 123.355265 81.403364 126.076339 L 79.551783 132.757406 C 78.186004 138.019695 76.732465 143.246237 75.184667 148.444618 L 72.86619 155.870033 L 70.448579 163.295999 L 68.313669 169.793449 L 66.277891 176.290349 L 64.793407 180.655032 L 63.117142 184.829048 C 62.377307 186.62867 61.166678 187.834073 59.499883 188.451213 C 58.753966 188.699918 58.107205 189.224345 57.553099 190.03208 C 56.500681 191.636169 54.94766 192.4429 52.907576 192.444145 C 51.053836 192.381453 49.533263 192.505625 48.359942 192.815576 L 47.899502 192.999795 L 47.432006 193.000373 C 43.474217 192.384219 40.469829 191.637979 38.426968 190.775195 C 36.945886 190.216267 35.863455 189.038673 35.179673 187.242414 C 34.316562 185.141185 33.694541 183.411009 33.32011 182.044302 C 32.702383 179.817919 31.654482 176.880845 30.168821 173.226581 L 28.962159 169.791687 L 27.756047 166.455926 C 26.454568 162.801647 24.904905 158.132221 23.113558 152.440064 L 18.654702 138.325054 C 17.852779 135.914504 17.017221 132.883156 16.148028 129.231009 L 14.108843 120.044294 L 13.831383 118.74096 C 12.840369 115.898681 11.881254 112.27471 10.955123 107.883133 L 9.931397 102.408141 L 8.722948 96.926122 L 7.42235 90.707383 L 6.220885 84.488094 C 5.228069 79.414508 4.301959 75.299203 3.435513 72.142722 C 2.8774 70.230526 2.410263 67.935876 2.042773 65.279354 L 1.116987 58.408366 L 0.647038 54.789232 C 0.219949 52.002704 1.389907 50.269137 4.17804 49.586902 L 6.033912 49.217308 L 7.981883 48.939798 L 9.469414 48.846506 L 10.857804 48.661673 C 14.755878 47.674367 18.626501 48.906453 22.463714 52.372558 L 23.300189 53.299901 C 24.037531 54.227794 24.937899 54.788935 25.993166 54.969783 C 28.714225 55.532405 30.7837 57.292802 32.209718 60.264516 L 33.138914 62.303984 C 36.172054 70.415324 38.209987 77.469865 39.266797 83.466521 L 39.267369 83.841927 C 39.818426 85.570483 40.377668 88.049308 40.936968 91.26486 L 41.584064 94.976613 L 42.422934 98.786941 C 43.223296 102.005183 44.150967 105.312796 45.206489 108.716824 L 48.174189 118.186239 L 50.865624 127.747766 L 51.333772 129.135593 L 51.79542 130.531004 L 56.253148 144.079384 C 57.301628 147.483954 58.109604 151.077059 58.662448 154.852741 L 59.316015 158.188545 L 60.239355 161.531912 L 60.423551 161.716079 Z M 60.707423 161.906739 " stroke="#000000" stroke-width="9.267424" stroke-opacity="1" stroke-miterlimit="4"/><g fill="#00ffc2" fill-opacity="1"><g transform="translate(146.04027, 222.161566)"><g><path d="M 34.8125 -14.578125 C 34.945312 -14.671875 35.0625 -14.8125 35.15625 -15 L 35.328125 -15.515625 L 36.96875 -19.96875 L 38.484375 -24.484375 L 39.53125 -27.90625 L 40.515625 -31.359375 L 43.03125 -39.984375 C 44.03125 -43.210938 44.988281 -46.054688 45.90625 -48.515625 C 46.90625 -51.191406 48.234375 -55.109375 49.890625 -60.265625 L 51.546875 -65.59375 L 53.140625 -70.921875 L 54.015625 -73.640625 L 54.90625 -76.3125 C 55.632812 -78.28125 56.414062 -80 57.25 -81.46875 L 57.8125 -82.875 L 58.390625 -84.328125 C 58.859375 -85.492188 59.5 -85.578125 60.3125 -84.578125 C 60.695312 -84.097656 60.816406 -83.59375 60.671875 -83.0625 L 60.15625 -81.15625 L 58.8125 -75.015625 L 57.5625 -68.828125 C 57.28125 -67.347656 56.785156 -65.632812 56.078125 -63.6875 C 55.347656 -61.800781 54.601562 -59.203125 53.84375 -55.890625 L 52.5 -50.390625 C 51.988281 -48.253906 51.5 -46.4375 51.03125 -44.9375 L 49.90625 -41.0625 L 48.875 -37.125 C 48.632812 -36.15625 48.253906 -34.929688 47.734375 -33.453125 L 46.4375 -29.84375 C 45.457031 -27 44.425781 -24.175781 43.34375 -21.375 L 41.75 -17.375 L 40.125 -13.390625 L 38.65625 -9.890625 L 37.25 -6.390625 L 36.25 -4.0625 L 35.140625 -1.828125 C 34.671875 -0.859375 33.957031 -0.242188 33 0.015625 C 32.582031 0.117188 32.203125 0.378906 31.859375 0.796875 C 31.210938 1.640625 30.328125 2.019531 29.203125 1.9375 C 28.179688 1.820312 27.34375 1.820312 26.6875 1.9375 L 26.40625 2.03125 L 26.15625 2.015625 C 24.007812 1.503906 22.382812 0.960938 21.28125 0.390625 C 20.476562 0.0234375 19.929688 -0.660156 19.640625 -1.671875 C 19.242188 -2.867188 18.984375 -3.851562 18.859375 -4.625 C 18.609375 -5.882812 18.148438 -7.550781 17.484375 -9.625 L 16.953125 -11.5625 L 16.421875 -13.46875 C 15.859375 -15.539062 15.207031 -18.179688 14.46875 -21.390625 L 12.609375 -29.34375 C 12.265625 -30.71875 11.929688 -32.425781 11.609375 -34.46875 L 10.875 -39.640625 L 10.796875 -40.359375 C 10.359375 -41.972656 9.976562 -44.007812 9.65625 -46.46875 L 9.328125 -49.546875 L 8.890625 -52.609375 L 8.4375 -56.09375 L 8.03125 -59.578125 C 7.71875 -62.410156 7.382812 -64.71875 7.03125 -66.5 C 6.800781 -67.582031 6.640625 -68.863281 6.546875 -70.34375 L 6.328125 -74.171875 L 6.234375 -76.1875 C 6.109375 -77.738281 6.832031 -78.644531 8.40625 -78.90625 L 9.4375 -79.03125 L 10.515625 -79.09375 L 11.34375 -79.09375 L 12.109375 -79.140625 C 14.296875 -79.523438 16.378906 -78.675781 18.359375 -76.59375 L 18.796875 -76.046875 C 19.148438 -75.515625 19.613281 -75.171875 20.1875 -75.015625 C 21.675781 -74.585938 22.75 -73.519531 23.40625 -71.8125 L 23.828125 -70.65625 C 25.148438 -66.070312 25.976562 -62.097656 26.3125 -58.734375 L 26.296875 -58.53125 C 26.523438 -57.550781 26.722656 -56.160156 26.890625 -54.359375 L 27.09375 -52.296875 L 27.40625 -50.15625 C 27.695312 -48.34375 28.0625 -46.472656 28.5 -44.546875 L 29.734375 -39.203125 L 30.828125 -33.828125 L 31.03125 -33.046875 L 31.21875 -32.234375 L 33.09375 -24.59375 C 33.53125 -22.664062 33.828125 -20.648438 33.984375 -18.546875 L 34.203125 -16.671875 L 34.5625 -14.796875 L 34.65625 -14.6875 Z M 34.8125 -14.578125 "/></g></g></g></svg>